<svg height="64" viewBox="0 0 64 64" width="64" xmlns="http://www.w3.org/2000/svg"><g fill="none" fill-rule="evenodd"><rect fill="#d8d8d8" height="39" rx="3" transform="matrix(.96592583 -.25881905 .25881905 .96592583 -6.544788 9.287398)" width="54" x="5" y="10"/><path d="m9 22.0065859c0-1.6604915 1.3348389-3.0065859 2.9995609-3.0065859h48.0008782c1.6566117 0 2.9995609 1.3340567 2.9995609 3.0065859v36.9868282c0 1.6604915-1.3348389 3.0065859-2.9995609 3.0065859h-48.0008782c-1.6566117 0-2.9995609-1.3340567-2.9995609-3.0065859z" fill="#ececec"/><path d="m14 39h17v10h-17z" fill="#ffdd95"/><path d="m35 40h23.0217289m-23.0217289 8h23.0217289m-23.0217289-4h23.0217289" stroke="#979797" stroke-linecap="square" stroke-width="2"/><path d="m29.272 24.484c-.0086667.1906676-.080166.3401661-.2145.4485s-.2015.2101662-.2015.3055c-.0260001.0433335-.0476666 1.2089886-.065 3.497-.0260001 2.4353455-.1083326 4.0083298-.247 4.719-.0433335.2340012-.2209984.4614989-.533.6825s-.6283317.3098336-.949.2665c-.4073354-.0520003-.8449977-.3596639-1.313-.923-.2253345-.2860014-.6889965-.9706613-1.391-2.054-.1126672-.0953338-.2274994-.1928328-.3445-.2925s-.1755-.2708321-.1755-.5135c0-.1560008.1863315-.2816662.559-.377.3120016-.0780004.6456649-.117 1.001-.117.2166677 0 .3466664.0173332.39.052.1560008.1300006.2469999.3163321.273.559.0346668.3206683.082333.5329995.143.637.0693337.1993343.1451663.402999.2275.611s.1798328.3163333.2925.325c.2513346.0086667.377-1.4949849.377-4.511 0-.9880049-.0129999-1.9889949-.039-3.003 0-.0866671-.0064999-.2101659-.0195-.3705s-.0195-.270833-.0195-.3315c0-.3813352.2296644-.6153329.689-.702.1993343-.0346668.5026646.0649988.91.299.4420022.2600013.6586667.524332.65.793zm6.812 4.056c.060667 1.1613391-.1386644 2.3594938-.598 3.5945s-.9489974 1.9304992-1.469 2.0865c-.208001.0693337-.4116657.0953334-.611.078-.208001-.0260001-.4116657-.0519999-.611-.078-1.7853423-.208001-2.7689991-2.1016488-2.951-5.681-.0520003-.9706715.1039982-2.0106611.468-3.12.3380017-1.0313385.6889982-1.6683321 1.053-1.911.0866671-.060667.1819995-.091.286-.091.0780004 0 .1993325.0238331.364.0715s.2903329.0715.377.0715c.1040005 0 .2924986-.0238331.5655-.0715s.4744993-.0715.6045-.0715c.1213339 0 .2209996.0173332.299.052 1.3433401.5460027 2.0843326 2.2359858 2.223 5.07zm-1.755 0c-.0866671-1.0833388-.2036659-1.8979973-.351-2.444-.2426679-.9186713-.6023309-1.378-1.079-1.378-.1300006 0-.2664993.0346663-.4095.104s-.3314988.5156625-.5655 1.339c-.2426679.9013378-.364 1.6943299-.364 2.379 0 .8926711.1559984 1.8308284.468 2.8145s.6109986 1.4755.897 1.4755c.268668 0 .567665-.4419956.897-1.326.3466684-.9186713.52-1.7896625.52-2.613 0-.1213339-.0043333-.2383328-.013-.351zm8.229 1.066c0 .5460027-.2816638 1.1656632-.845 1.859-.1126672.1300006-.6759949.7236614-1.69 1.781-.1646675.3120016-.3293325.6196651-.494.923-.2166677.2946681-.4766652.4246668-.78.39-.5893363-.0693337-1.0833313-.3769973-1.482-.923-.1386674-.1820009-.208-.3509992-.208-.507 0-.1733342.0953324-.3379992.286-.494-.0866671-.4766691-.1689996-1.7679895-.247-3.874-.060667-1.733342-.091-2.9163302-.091-3.549-.1820009-.2860014-.273-.5806651-.273-.884 0-.2253345.0649994-.4073326.195-.546.0953338-.0953338.2339991-.143.416-.143.4680023 0 .8493319.1776649 1.144.533.8406709-.3120016 1.5253307-.468 2.054-.468.598003 0 .9966657.1906648 1.196.572.1300006.2426679.195.5113319.195.806 0 .9100046-.4896618 1.8633284-1.469 2.86l1.196.364c.3726685.1386674.6153328.3271655.728.5655s.169.4831654.169.7345zm-2.769-4.29c-.2166677 0-.6153304.1906648-1.196.572 0 .0780004.0086666.3314979.026.7605s.026.7128326.026.8515c.3466684-.2946681.6651652-.6478313.9555-1.0595s.4355-.7171657.4355-.9165c0-.1386674-.0823325-.208-.247-.208zm.442 4.134c-.5026692 0-.9793311.1906648-1.43.572l.052 1.976c1.2393395-.9793382 1.859-1.7116642 1.859-2.197 0-.2340012-.1603317-.351-.481-.351zm8.71 2.392c0 .6760034-.2144979 1.2674975-.6435 1.7745s-.9598302.7605-1.5925.7605c-1.2740064 0-2.209997-.6066606-2.808-1.82-.6500033-.4246688-.975-.7843319-.975-1.079 0-.1473341.0909991-.2686662.273-.364.3553351-.1906676.6803319-.286.975-.286.6413365 0 1.0703323.3813295 1.287 1.144.1040005.208001.2123328.415999.325.624s.2643324.312.455.312c.5113359 0 .767-.3639964.767-1.092 0-.6500032-.1169988-1.0876655-.351-1.313-.1040005-.0953338-.5199964-.2946652-1.248-.598-.5806696-.2426679-1.0486649-.6586637-1.404-1.248-.3206683-.537336-.4853333-1.0963304-.494-1.677-.0086667-.9360047.225331-1.7679964.702-2.496.5026692-.7800039 1.1266629-1.17 1.872-1.17.866671 0 1.4993313.3466632 1.898 1.04.2600013.4333355.4073332.9706635.442 1.612.0953338.329335.143.628332.143.897 0 .1733342-.0216665.3163328-.065.429-.1300007.3206683-.3856648.481-.767.481-.2860014 0-.5459988-.103999-.78-.312-.2600013-.2253345-.420333-.5416646-.481-.949-.0260001-.1386674.0021663-.2773326.0845-.416s.1235-.2166666.1235-.234-.0086666-.0346666-.026-.052c.0086667-.0433336.013-.0866665.013-.13 0-.2600013-.1516652-.3813334-.455-.364-.2946681.0173334-.5243325.2123315-.689.585-.1473341.3206683-.2123334.6889979-.195 1.105.0260001.7366703.5113286 1.3259978 1.456 1.768.7453371.3466684 1.2609986.6889983 1.547 1.027.4073354.4853358.611 1.1656623.611 2.041z" fill="#979797"/><path d="m15 52h43.0464865m-43.0464865 4h43.0464865" stroke="#979797" stroke-linecap="square" stroke-width="2"/></g></svg>